<?xml version="1.0" standalone="no"?><!DOCTYPE svg PUBLIC "-//W3C//DTD SVG 1.1//EN" "http://www.w3.org/Graphics/SVG/1.1/DTD/svg11.dtd"><svg class="icon" width="200px" height="200.00px" viewBox="0 0 1024 1024" version="1.1" xmlns="http://www.w3.org/2000/svg"><path d="M532.05936 702.19169c0 34.939767 28.336372 63.303768 63.305815 63.303768 34.970466 0 63.303768-28.365025 63.303768-63.303768 0-34.999119-28.333302-63.304791-63.303768-63.304791C560.396755 638.886899 532.05936 667.192571 532.05936 702.19169zM235.988224 485.007229c0 26.874067 21.807678 48.698119 48.696072 48.698119 26.874067 0 48.696072-21.824051 48.696072-48.698119 0-26.903743-21.823028-48.695049-48.696072-48.695049C257.794879 436.31218 235.988224 458.104509 235.988224 485.007229zM866.022501 420.912445c0 0-17.192567-32.441876-55.736419-76.920904-10.371208 11.238972-28.048823 30.350239-49.660027 53.527101 11.488659 13.630439 17.10661 21.8701 17.10661 21.8701 4.749164 14.183024 21.546735 41.270962 8.369621 64.919569-13.148461 23.64656-33.265638 30.342052-64.036455 46.443775-61.23362 32.108279-47.294143 95.231945-15.551184 182.580339 10.07445 27.694759 25.505907 75.357292-11.106965 89.112574-22.553669 8.461719-47.602158 13.026688-79.374792 12.599969-32.929993-0.364297-72.922846-6.087649-116.687606-18.198477-141.67572-39.262212-239.615333-115.351168-278.358729-222.663242-38.743396-107.375519-30.450523-244.881267 48.711422-309.038472 79.145571-64.157205 220.333174-72.862471 334.039889-1.399883 15.081487 9.474792 29.133527 19.051915 42.182728 28.553313 25.379017-22.632463 45.466518-40.479947 55.142901-49.070602-15.167444-11.233855-31.474852-22.382776-48.994877-33.232892-145.692197-90.208535-326.506309-81.017198-427.900603 0-101.395318 81.049944-120.933303 251.089665-71.324442 386.648061C202.464713 732.201168 324.828598 841.036945 509.446339 877.80229c47.052642 9.372461 91.032296 14.731516 130.506333 15.70468 46.716998 1.157359 87.195921-3.894703 119.091352-15.70468 46.930869-17.346063 48.575322-70.425979 35.669384-105.426121-40.689724-110.296035-78.43028-170.375366 0-210.913641 39.383986-20.332071 54.448076-26.995841 71.309092-56.851822C882.883517 474.720955 872.080473 438.776302 866.022501 420.912445zM467.933877 494.199589c-14.912641 16.313547-74.505901 79.190597-91.852988 150.104693 68.355831-8.702196 109.079324-40.294728 157.896146-79.31237 27.39186-36.979216 170.802084-179.809225 170.802084-179.809225l139.240251-143.68447c0 0-1.035586-16.191774-9.55768-25.048489-7.455809-7.731078-22.582321-8.27957-22.582321-8.27957L649.630079 345.18881C649.630079 345.18881 506.616898 463.886189 467.933877 494.199589zM514.530125 286.329261c0-24.775266-20.057825-44.801369-44.801369-44.801369-24.743544 0-44.800345 20.025079-44.800345 44.801369 0 24.712845 20.056801 44.798299 44.800345 44.798299C494.473323 331.12756 514.530125 311.042105 514.530125 286.329261zM384.023792 348.658841c0-24.774243-20.057825-44.800345-44.800345-44.800345-24.744567 0-44.799322 20.026102-44.799322 44.800345 0 24.712845 20.055778 44.800345 44.799322 44.800345C363.96699 393.459187 384.023792 373.372709 384.023792 348.658841z" fill="#2c2c2c" /></svg>