<?xml version="1.0" standalone="no"?><!DOCTYPE svg PUBLIC "-//W3C//DTD SVG 1.1//EN" "http://www.w3.org/Graphics/SVG/1.1/DTD/svg11.dtd"><svg class="icon" width="200px" height="200.00px" viewBox="0 0 1024 1024" version="1.1" xmlns="http://www.w3.org/2000/svg"><path d="M966.378667 240.853333c-5.184-15.018667-25.408-17.493333-36.949334-6.570666-14.698667 13.952-33.728 30.250667-56.106666 49.898666a95.936 95.936 0 0 1-135.893334 0c-37.504-37.632-37.504-94.058667 0-136.384 20.458667-20.544 40.938667-42.496 55.296-58.176 9.792-10.688 6.016-27.690667-7.765333-32.149333-101.930667-33.045333-218.602667-10.773333-295.914667 66.816-79.68 79.936-103.104 197.504-70.293333 296.256L81.322667 759.146667c-51.541333 51.712-51.541333 131.669333 0 183.381333 51.562667 51.733333 131.221333 51.733333 182.762666 0l337.429334-338.56c98.410667 32.896 215.573333 9.386667 295.232-70.549333 80.106667-80.384 103.317333-195.029333 69.632-292.565334z" fill="#333333" /></svg>