<?xml version="1.0" standalone="no"?><!DOCTYPE svg PUBLIC "-//W3C//DTD SVG 1.1//EN" "http://www.w3.org/Graphics/SVG/1.1/DTD/svg11.dtd"><svg class="icon" width="200px" height="200.00px" viewBox="0 0 1024 1024" version="1.1" xmlns="http://www.w3.org/2000/svg"><path d="M780.4 922.7H85.5V177.2h453.7l53.2-74.8H61c-33.9 0-53.2 39.3-53.2 71.9v764.1c0 32.6 27.5 59.2 61.4 59.2h732.6c33.9 0 61.4-26.5 61.4-59.2V505.7l-82.7 57-0.1 360zM1017.8 157c-0.6-32.3-16.9-63.4-48.4-92.4C941.8 39 911.2 26 878.6 26c-51.1 0-88.3 31.8-98.4 41.5-14.3 13.7-421.3 404.7-421.3 404.7-3.2 3.2-5.5 6.9-6.7 11.3-11 39.2-66.3 213.3-66.8 215-2.8 9-0.3 18.7 6.5 25.1 4.9 4.7 11.5 7.3 18.2 7.3 2.6 0 5.3-0.4 7.9-1.2 1.9-0.6 188.5-58.7 219.2-67.6 4-1.2 7.7-3.3 10.7-6.1 19.4-18.5 393.4-372.8 423.7-402.9 31.2-31.2 46.8-63.4 46.2-96.1z m-106.5 47.6c-28.1 12.7-151.9 149.7-398.6 383.7-28.3 8.4-97.6 49-148.9 64.9 16.5-52.4 60.3-111.7 69.1-141.7 52.7-50.7 385.4-371.1 398.6-383.7 2.6-2.5 24.2-25.6 53.1-25.6 16.5 0 10.5 10.7 26.6 25.6 19.2 17.8 26.3 9.6 26.6 25.6 0.3 16.5-7 31.9-26.5 51.2z" fill="#2c2c2c" /></svg>