<?xml version="1.0" standalone="no"?><!DOCTYPE svg PUBLIC "-//W3C//DTD SVG 1.1//EN" "http://www.w3.org/Graphics/SVG/1.1/DTD/svg11.dtd"><svg class="icon" width="200px" height="200.00px" viewBox="0 0 1024 1024" version="1.1" xmlns="http://www.w3.org/2000/svg"><path d="M0 0h1024v1024H0z" fill="#000000" fill-opacity="0" /><path d="M180 304c-64.065 0-116-51.935-116-116S115.935 72 180 72c51.498 0 95.158 33.558 110.305 79.999L504 152c26.51 0 48 21.49 48 48v592h250.022v-75.997c0-6.621 7.52-10.41 12.812-6.445l0.188 0.145 141.9 112c4.1 3.2 4.1 9.4 0 12.6l-141.9 112c-5.2 4.2-13 0.4-13-6.3v-76h-184c-0.062 0-0.124 0-0.186-0.002L528 864c-26.51 0-48-21.49-48-48V224l-189.695 0.002C275.157 270.442 231.497 304 180 304z m0-160c-24.3 0-44 19.7-44 44s19.7 44 44 44 44-19.7 44-44-19.7-44-44-44z" fill="#1D2129" /></svg>